<?xml version="1.0" encoding="UTF-8" standalone="no"?>
<!DOCTYPE svg PUBLIC "-//W3C//DTD SVG 1.1//EN"
 "http://www.w3.org/Graphics/SVG/1.1/DTD/svg11.dtd">
<!-- Generated by graphviz version 2.36.0 (20140111.2315)
 -->
<!-- Title: G Pages: 1 -->
<svg width="316pt" height="420pt"
 viewBox="0.00 0.00 316.00 420.00" xmlns="http://www.w3.org/2000/svg" xmlns:xlink="http://www.w3.org/1999/xlink">
<g id="graph0" class="graph" transform="scale(1 1) rotate(0) translate(4 416)">
<title>G</title>
<polygon fill="white" stroke="none" points="-4,4 -4,-416 312,-416 312,4 -4,4"/>
<g id="clust1" class="cluster"><title>cluster_Global</title>
<path fill="none" stroke="gray" d="M206,-8C206,-8 288,-8 288,-8 294,-8 300,-14 300,-20 300,-20 300,-392 300,-392 300,-398 294,-404 288,-404 288,-404 206,-404 206,-404 200,-404 194,-398 194,-392 194,-392 194,-20 194,-20 194,-14 200,-8 206,-8"/>
<text text-anchor="middle" x="247" y="-391.2" font-family="Times,serif" font-size="11.00" fill="gray">Global</text>
</g>
<!-- \\Events -->
<g id="node1" class="node"><title>\\Events</title>
<polygon fill="none" stroke="black" points="275,-376 219,-376 219,-340 275,-340 275,-376"/>
<text text-anchor="middle" x="247" y="-355.2" font-family="Courier,monospace" font-size="11.00">Events</text>
</g>
<!-- \\Officials -->
<g id="node2" class="node"><title>\\Officials</title>
<polygon fill="none" stroke="black" points="285,-322 209,-322 209,-286 285,-286 285,-322"/>
<text text-anchor="middle" x="247" y="-301.2" font-family="Courier,monospace" font-size="11.00">Officials</text>
</g>
<!-- \\Legislature -->
<g id="node3" class="node"><title>\\Legislature</title>
<polygon fill="none" stroke="black" points="291.5,-268 202.5,-268 202.5,-232 291.5,-232 291.5,-268"/>
<text text-anchor="middle" x="247" y="-247.2" font-family="Courier,monospace" font-size="11.00">Legislature</text>
</g>
<!-- \\CI_Controller -->
<g id="node8" class="node"><title>\\CI_Controller</title>
<ellipse fill="none" stroke="black" cx="65" cy="-223" rx="64.189" ry="18"/>
<text text-anchor="middle" x="65" y="-219.3" font-family="Times,serif" font-size="14.00" fill="gray">\CI_Controller</text>
</g>
<!-- \\Legislature&#45;&gt;\\CI_Controller -->
<g id="edge1" class="edge"><title>\\Legislature&#45;&gt;\\CI_Controller</title>
<path fill="none" stroke="black" d="M202.427,-243.464C181.306,-240.296 155.487,-236.423 132.015,-232.902"/>
<polygon fill="none" stroke="black" points="132.529,-229.44 122.12,-231.418 131.49,-236.363 132.529,-229.44"/>
</g>
<!-- \\Simple -->
<g id="node4" class="node"><title>\\Simple</title>
<polygon fill="none" stroke="black" points="275,-214 219,-214 219,-178 275,-178 275,-214"/>
<text text-anchor="middle" x="247" y="-193.2" font-family="Courier,monospace" font-size="11.00">Simple</text>
</g>
<!-- \\Simple&#45;&gt;\\CI_Controller -->
<g id="edge2" class="edge"><title>\\Simple&#45;&gt;\\CI_Controller</title>
<path fill="none" stroke="black" d="M218.662,-200.101C195.688,-203.547 161.901,-208.615 131.948,-213.108"/>
<polygon fill="none" stroke="black" points="131.329,-209.661 121.959,-214.606 132.367,-216.584 131.329,-209.661"/>
</g>
<!-- \\Legislators -->
<g id="node5" class="node"><title>\\Legislators</title>
<polygon fill="none" stroke="black" points="291.5,-160 202.5,-160 202.5,-124 291.5,-124 291.5,-160"/>
<text text-anchor="middle" x="247" y="-139.2" font-family="Courier,monospace" font-size="11.00">Legislators</text>
</g>
<!-- \\Simple_m -->
<g id="node6" class="node"><title>\\Simple_m</title>
<polygon fill="none" stroke="black" points="281.5,-106 212.5,-106 212.5,-70 281.5,-70 281.5,-106"/>
<text text-anchor="middle" x="247" y="-85.2" font-family="Courier,monospace" font-size="11.00">Simple_m</text>
</g>
<!-- \\CI_Model -->
<g id="node9" class="node"><title>\\CI_Model</title>
<ellipse fill="none" stroke="black" cx="65" cy="-88" rx="50.8918" ry="18"/>
<text text-anchor="middle" x="65" y="-84.3" font-family="Times,serif" font-size="14.00" fill="gray">\CI_Model</text>
</g>
<!-- \\Simple_m&#45;&gt;\\CI_Model -->
<g id="edge3" class="edge"><title>\\Simple_m&#45;&gt;\\CI_Model</title>
<path fill="none" stroke="black" d="M212.143,-88C188.017,-88 154.929,-88 126.337,-88"/>
<polygon fill="none" stroke="black" points="126.032,-84.5001 116.032,-88 126.032,-91.5001 126.032,-84.5001"/>
</g>
<!-- \\States -->
<g id="node7" class="node"><title>\\States</title>
<polygon fill="none" stroke="black" points="275,-52 219,-52 219,-16 275,-16 275,-52"/>
<text text-anchor="middle" x="247" y="-31.2" font-family="Courier,monospace" font-size="11.00">States</text>
</g>
</g>
</svg>
